<svg xmlns="http://www.w3.org/2000/svg" viewBox="0 0 600 338">
  <rect width="600" height="338" fill="#efece6"/>
  <rect x="146" y="36" width="308" height="266" rx="16" fill="#ffffff" stroke="#ddd6cc" stroke-width="1.5"/>
  <path d="M146 52 a16 16 0 0 1 16 -16 h276 a16 16 0 0 1 16 16 v46 h-308 z" fill="#2f2f38"/>
  <text x="300" y="78" text-anchor="middle" font-family="Georgia, 'Times New Roman', serif" font-size="26" fill="#ffffff" letter-spacing="6">2026</text>
  <circle cx="186" cy="130" r="4" fill="#d8d2c8"/><circle cx="224" cy="130" r="4" fill="#d8d2c8"/><circle cx="262" cy="130" r="4" fill="#d8d2c8"/><circle cx="300" cy="130" r="7.5" fill="#d64550"/><circle cx="338" cy="130" r="4" fill="#d8d2c8"/><circle cx="376" cy="130" r="4" fill="#d8d2c8"/><circle cx="414" cy="130" r="4" fill="#d8d2c8"/><circle cx="186" cy="168" r="7.5" fill="#4a7fd4"/><circle cx="224" cy="168" r="4" fill="#d8d2c8"/><circle cx="262" cy="168" r="4" fill="#d8d2c8"/><circle cx="300" cy="168" r="7.5" fill="#e09a2e"/><circle cx="338" cy="168" r="4" fill="#d8d2c8"/><circle cx="376" cy="168" r="4" fill="#d8d2c8"/><circle cx="414" cy="168" r="4" fill="#d8d2c8"/><circle cx="186" cy="206" r="4" fill="#d8d2c8"/><circle cx="224" cy="206" r="4" fill="#d8d2c8"/><circle cx="262" cy="206" r="4" fill="#d8d2c8"/><circle cx="300" cy="206" r="7.5" fill="#3f9d63"/><circle cx="338" cy="206" r="7.5" fill="#4a7fd4"/><circle cx="376" cy="206" r="4" fill="#d8d2c8"/><circle cx="414" cy="206" r="4" fill="#d8d2c8"/><circle cx="186" cy="244" r="7.5" fill="#e09a2e"/><circle cx="224" cy="244" r="4" fill="#d8d2c8"/><circle cx="262" cy="244" r="4" fill="#d8d2c8"/><circle cx="300" cy="244" r="4" fill="#d8d2c8"/><circle cx="338" cy="244" r="4" fill="#d8d2c8"/><circle cx="376" cy="244" r="4" fill="#d8d2c8"/><circle cx="414" cy="244" r="7.5" fill="#3f9d63"/><circle cx="186" cy="282" r="4" fill="#d8d2c8"/><circle cx="224" cy="282" r="7" fill="none" stroke="#e09a2e" stroke-width="3"/><circle cx="262" cy="282" r="4" fill="#d8d2c8"/><circle cx="300" cy="282" r="4" fill="#d8d2c8"/><circle cx="338" cy="282" r="4" fill="#d8d2c8"/><circle cx="376" cy="282" r="7.5" fill="#d64550"/><circle cx="414" cy="282" r="4" fill="#d8d2c8"/>
</svg>
